<svg xmlns="http://www.w3.org/2000/svg" xmlns:xlink="http://www.w3.org/1999/xlink" version="1.1" width="256" height="256" viewBox="0 0 256 256" xml:space="preserve">

<defs>
</defs>
<g style="stroke: none; stroke-width: 0; stroke-dasharray: none; stroke-linecap: butt; stroke-linejoin: miter; stroke-miterlimit: 10; fill: none; fill-rule: nonzero; opacity: 1;" transform="translate(58.471595330739305 58.47159533073928) scale(1.53 1.53)" >
	<path d="M 77.113 63.99 c 4.547 0 8.246 -3.699 8.246 -8.246 V 34.256 c 0 -4.547 -3.699 -8.246 -8.246 -8.246 H 58.678 V 14.861 c 0 -3.563 -2.898 -6.461 -6.462 -6.461 H 24.909 c -3.563 0 -6.461 2.898 -6.461 6.461 v 16.195 c 0 3.563 2.898 6.461 6.461 6.461 h 7.728 v 14.965 H 15.629 c -3.563 0 -6.461 2.898 -6.461 6.461 V 75.14 c 0 3.563 2.898 6.461 6.461 6.461 h 27.307 c 3.563 0 6.461 -2.898 6.461 -6.461 V 63.99 H 77.113 z M 24.909 35.518 c -2.46 0 -4.461 -2.001 -4.461 -4.461 V 14.861 c 0 -2.46 2.001 -4.461 4.461 -4.461 h 27.307 c 2.46 0 4.462 2.001 4.462 4.461 V 26.01 H 40.883 c -4.547 0 -8.246 3.699 -8.246 8.246 v 1.262 H 24.909 z M 56.678 28.01 v 3.046 c 0 2.46 -2.002 4.461 -4.462 4.461 H 34.637 v -1.262 c 0 -3.444 2.802 -6.246 6.246 -6.246 H 56.678 z M 34.637 37.518 h 17.579 c 3.563 0 6.462 -2.898 6.462 -6.461 V 28.01 h 18.436 c 3.444 0 6.246 2.802 6.246 6.246 v 21.488 c 0 3.444 -2.802 6.246 -6.246 6.246 H 49.396 v -3.047 c 0 -3.563 -2.898 -6.461 -6.461 -6.461 h -8.299 V 37.518 z M 34.637 54.482 h 8.299 c 2.46 0 4.461 2.001 4.461 4.461 v 3.047 h -6.514 c -3.444 0 -6.246 -2.802 -6.246 -6.246 V 54.482 z M 47.396 75.14 c 0 2.46 -2.001 4.461 -4.461 4.461 H 15.629 c -2.46 0 -4.461 -2.001 -4.461 -4.461 V 58.943 c 0 -2.46 2.001 -4.461 4.461 -4.461 h 17.008 v 1.262 c 0 4.547 3.699 8.246 8.246 8.246 h 6.514 V 75.14 z" style="stroke: none; stroke-width: 1; stroke-dasharray: none; stroke-linecap: butt; stroke-linejoin: miter; stroke-miterlimit: 10; fill: rgb(30,171,235); fill-rule: nonzero; opacity: 1;" transform=" matrix(1 0 0 1 0 0) " stroke-linecap="round" />
	<path d="M 87.071 70.021 h -9.646 c -1.615 0 -2.93 1.314 -2.93 2.93 v 5.721 c 0 1.615 1.314 2.929 2.93 2.929 h 9.646 c 1.615 0 2.929 -1.313 2.929 -2.929 v -5.721 C 90 71.336 88.687 70.021 87.071 70.021 z M 88 78.672 c 0 0.512 -0.417 0.929 -0.929 0.929 h -9.646 c -0.513 0 -0.93 -0.417 -0.93 -0.929 v -5.721 c 0 -0.513 0.417 -0.93 0.93 -0.93 h 9.646 c 0.512 0 0.929 0.417 0.929 0.93 V 78.672 z" style="stroke: none; stroke-width: 1; stroke-dasharray: none; stroke-linecap: butt; stroke-linejoin: miter; stroke-miterlimit: 10; fill: rgb(30,171,235); fill-rule: nonzero; opacity: 1;" transform=" matrix(1 0 0 1 0 0) " stroke-linecap="round" />
	<path d="M 75.105 19.978 h 9.646 c 1.615 0 2.929 -1.314 2.929 -2.929 v -5.721 c 0 -1.615 -1.313 -2.929 -2.929 -2.929 h -9.646 c -1.615 0 -2.93 1.314 -2.93 2.929 v 5.721 C 72.176 18.664 73.49 19.978 75.105 19.978 z M 74.176 11.328 c 0 -0.512 0.417 -0.929 0.93 -0.929 h 9.646 c 0.512 0 0.929 0.417 0.929 0.929 v 5.721 c 0 0.512 -0.417 0.929 -0.929 0.929 h -9.646 c -0.513 0 -0.93 -0.417 -0.93 -0.929 V 11.328 z" style="stroke: none; stroke-width: 1; stroke-dasharray: none; stroke-linecap: butt; stroke-linejoin: miter; stroke-miterlimit: 10; fill: rgb(30,171,235); fill-rule: nonzero; opacity: 1;" transform=" matrix(1 0 0 1 0 0) " stroke-linecap="round" />
	<path d="M 15.504 45.328 v -5.721 c 0 -1.615 -1.314 -2.929 -2.929 -2.929 H 2.929 C 1.314 36.678 0 37.992 0 39.607 v 5.721 c 0 1.615 1.314 2.929 2.929 2.929 h 9.646 C 14.19 48.257 15.504 46.942 15.504 45.328 z M 2 45.328 v -5.721 c 0 -0.512 0.417 -0.929 0.929 -0.929 h 9.646 c 0.512 0 0.929 0.417 0.929 0.929 v 5.721 c 0 0.512 -0.417 0.929 -0.929 0.929 H 2.929 C 2.417 46.257 2 45.84 2 45.328 z" style="stroke: none; stroke-width: 1; stroke-dasharray: none; stroke-linecap: butt; stroke-linejoin: miter; stroke-miterlimit: 10; fill: rgb(30,171,235); fill-rule: nonzero; opacity: 1;" transform=" matrix(1 0 0 1 0 0) " stroke-linecap="round" />
</g>
</svg>