<svg xmlns="http://www.w3.org/2000/svg" xmlns:xlink="http://www.w3.org/1999/xlink" version="1.1" width="256" height="256" viewBox="0 0 256 256" xml:space="preserve">

<defs>
</defs>
<g style="stroke: none; stroke-width: 0; stroke-dasharray: none; stroke-linecap: butt; stroke-linejoin: miter; stroke-miterlimit: 10; fill: none; fill-rule: nonzero; opacity: 1;" transform="translate(9.164202334630346 9.164202334630318) scale(2.63 2.63)" >
	<path d="M 2 70.332 c -1.104 0 -2 -0.896 -2 -2 c 0 -26.833 21.831 -48.665 48.665 -48.665 c 16.683 0 32.018 8.4 41.02 22.469 c 0.596 0.931 0.324 2.167 -0.606 2.763 c -0.931 0.596 -2.167 0.324 -2.763 -0.606 c -8.264 -12.915 -22.339 -20.625 -37.65 -20.625 C 24.037 23.667 4 43.704 4 68.332 C 4 69.437 3.104 70.332 2 70.332 z" style="stroke: none; stroke-width: 1; stroke-dasharray: none; stroke-linecap: butt; stroke-linejoin: miter; stroke-miterlimit: 10; fill: rgb(28,185,220); fill-rule: nonzero; opacity: 1;" transform=" matrix(1 0 0 1 0 0) " stroke-linecap="round" />
	<path d="M 18.278 70.332 c -1.104 0 -2 -0.896 -2 -2 c 0 -17.857 14.529 -32.386 32.387 -32.386 c 15.07 0 28.027 10.226 31.509 24.869 c 0.256 1.075 -0.408 2.153 -1.482 2.408 c -1.073 0.256 -2.153 -0.408 -2.408 -1.482 c -3.052 -12.832 -14.408 -21.794 -27.618 -21.794 c -15.652 0 -28.387 12.734 -28.387 28.386 C 20.278 69.437 19.383 70.332 18.278 70.332 z" style="stroke: none; stroke-width: 1; stroke-dasharray: none; stroke-linecap: butt; stroke-linejoin: miter; stroke-miterlimit: 10; fill: rgb(28,185,220); fill-rule: nonzero; opacity: 1;" transform=" matrix(1 0 0 1 0 0) " stroke-linecap="round" />
	<path d="M 34.557 70.332 c -1.104 0 -2 -0.896 -2 -2 c 0 -8.882 7.226 -16.107 16.108 -16.107 c 5.73 0 11.076 3.085 13.95 8.05 c 0.554 0.956 0.228 2.18 -0.729 2.732 c -0.957 0.554 -2.18 0.228 -2.732 -0.729 c -2.162 -3.734 -6.181 -6.054 -10.489 -6.054 c -6.676 0 -12.108 5.432 -12.108 12.107 C 36.557 69.437 35.662 70.332 34.557 70.332 z" style="stroke: none; stroke-width: 1; stroke-dasharray: none; stroke-linecap: butt; stroke-linejoin: miter; stroke-miterlimit: 10; fill: rgb(28,185,220); fill-rule: nonzero; opacity: 1;" transform=" matrix(1 0 0 1 0 0) " stroke-linecap="round" />
</g>
</svg>