<svg xmlns="http://www.w3.org/2000/svg" xmlns:xlink="http://www.w3.org/1999/xlink" version="1.1" width="256" height="256" viewBox="0 0 256 256" xml:space="preserve">

<defs>
</defs>
<g style="stroke: none; stroke-width: 0; stroke-dasharray: none; stroke-linecap: butt; stroke-linejoin: miter; stroke-miterlimit: 10; fill: none; fill-rule: nonzero; opacity: 1;" transform="translate(58.471595330739305 58.47159533073928) scale(1.53 1.53)" >
	<path d="M 2 61.707 c -0.512 0 -1.024 -0.195 -1.414 -0.586 c -0.781 -0.781 -0.781 -2.047 0 -2.828 l 14.707 -14.707 c 0.78 -0.781 2.048 -0.781 2.828 0 c 0.781 0.781 0.781 2.047 0 2.828 L 3.414 61.121 C 3.024 61.512 2.512 61.707 2 61.707 z" style="stroke: none; stroke-width: 1; stroke-dasharray: none; stroke-linecap: butt; stroke-linejoin: miter; stroke-miterlimit: 10; fill: rgb(33,108,162); fill-rule: nonzero; opacity: 1;" transform=" matrix(1 0 0 1 0 0) " stroke-linecap="round" />
	<path d="M 27.014 36.693 c -0.512 0 -1.024 -0.195 -1.414 -0.586 c -0.781 -0.781 -0.781 -2.047 0 -2.828 L 58.293 0.586 c 0.781 -0.781 2.047 -0.781 2.828 0 c 0.781 0.781 0.781 2.047 0 2.828 L 28.428 36.107 C 28.038 36.498 27.526 36.693 27.014 36.693 z" style="stroke: none; stroke-width: 1; stroke-dasharray: none; stroke-linecap: butt; stroke-linejoin: miter; stroke-miterlimit: 10; fill: rgb(33,108,162); fill-rule: nonzero; opacity: 1;" transform=" matrix(1 0 0 1 0 0) " stroke-linecap="round" />
	<path d="M 73.293 47 c -0.512 0 -1.023 -0.195 -1.414 -0.586 c -0.781 -0.781 -0.781 -2.047 0 -2.828 l 14.707 -14.707 c 0.781 -0.781 2.047 -0.781 2.828 0 c 0.781 0.781 0.781 2.047 0 2.828 L 74.707 46.414 C 74.316 46.805 73.805 47 73.293 47 z" style="stroke: none; stroke-width: 1; stroke-dasharray: none; stroke-linecap: butt; stroke-linejoin: miter; stroke-miterlimit: 10; fill: rgb(33,108,162); fill-rule: nonzero; opacity: 1;" transform=" matrix(1 0 0 1 0 0) " stroke-linecap="round" />
	<path d="M 30.293 90 c -0.512 0 -1.023 -0.195 -1.414 -0.586 c -0.781 -0.781 -0.781 -2.047 0 -2.828 l 32.693 -32.692 c 0.781 -0.781 2.047 -0.781 2.828 0 s 0.781 2.047 0 2.828 L 31.707 89.414 C 31.317 89.805 30.805 90 30.293 90 z" style="stroke: none; stroke-width: 1; stroke-dasharray: none; stroke-linecap: butt; stroke-linejoin: miter; stroke-miterlimit: 10; fill: rgb(33,108,162); fill-rule: nonzero; opacity: 1;" transform=" matrix(1 0 0 1 0 0) " stroke-linecap="round" />
	<path d="M 45 18.707 c -0.512 0 -1.024 -0.195 -1.414 -0.586 L 28.879 3.414 c -0.781 -0.781 -0.781 -2.047 0 -2.828 c 0.78 -0.781 2.048 -0.781 2.828 0 l 14.707 14.707 c 0.781 0.781 0.781 2.047 0 2.828 C 46.023 18.512 45.512 18.707 45 18.707 z" style="stroke: none; stroke-width: 1; stroke-dasharray: none; stroke-linecap: butt; stroke-linejoin: miter; stroke-miterlimit: 10; fill: rgb(33,108,162); fill-rule: nonzero; opacity: 1;" transform=" matrix(1 0 0 1 0 0) " stroke-linecap="round" />
	<path d="M 88 61.707 c -0.512 0 -1.023 -0.195 -1.414 -0.586 L 53.894 28.428 c -0.781 -0.781 -0.781 -2.047 0 -2.828 c 0.781 -0.781 2.047 -0.781 2.828 0 l 32.692 32.693 c 0.781 0.781 0.781 2.047 0 2.828 C 89.023 61.512 88.512 61.707 88 61.707 z" style="stroke: none; stroke-width: 1; stroke-dasharray: none; stroke-linecap: butt; stroke-linejoin: miter; stroke-miterlimit: 10; fill: rgb(33,108,162); fill-rule: nonzero; opacity: 1;" transform=" matrix(1 0 0 1 0 0) " stroke-linecap="round" />
	<path d="M 59.707 90 c -0.512 0 -1.023 -0.195 -1.414 -0.586 L 43.586 74.707 c -0.781 -0.781 -0.781 -2.047 0 -2.828 c 0.78 -0.781 2.047 -0.781 2.828 0 l 14.707 14.707 c 0.781 0.781 0.781 2.047 0 2.828 C 60.73 89.805 60.219 90 59.707 90 z" style="stroke: none; stroke-width: 1; stroke-dasharray: none; stroke-linecap: butt; stroke-linejoin: miter; stroke-miterlimit: 10; fill: rgb(33,108,162); fill-rule: nonzero; opacity: 1;" transform=" matrix(1 0 0 1 0 0) " stroke-linecap="round" />
	<path d="M 34.693 64.986 c -0.512 0 -1.023 -0.195 -1.414 -0.586 L 0.586 31.707 c -0.781 -0.781 -0.781 -2.047 0 -2.828 c 0.78 -0.781 2.047 -0.781 2.828 0 l 32.693 32.693 c 0.781 0.781 0.781 2.047 0 2.828 C 35.717 64.791 35.205 64.986 34.693 64.986 z" style="stroke: none; stroke-width: 1; stroke-dasharray: none; stroke-linecap: butt; stroke-linejoin: miter; stroke-miterlimit: 10; fill: rgb(33,108,162); fill-rule: nonzero; opacity: 1;" transform=" matrix(1 0 0 1 0 0) " stroke-linecap="round" />
</g>
</svg>