<svg xmlns="http://www.w3.org/2000/svg" xmlns:xlink="http://www.w3.org/1999/xlink" version="1.1" width="256" height="256" viewBox="0 0 256 256" xml:space="preserve">

<defs>
</defs>
<g style="stroke: none; stroke-width: 0; stroke-dasharray: none; stroke-linecap: butt; stroke-linejoin: miter; stroke-miterlimit: 10; fill: none; fill-rule: nonzero; opacity: 1;" transform="translate(1.4065934065934016 1.4065934065934016) scale(2.81 2.81)" >
	<path d="M 89.732 53.26 L 62.887 6.761 c -0.02 -0.034 -0.046 -0.061 -0.067 -0.093 c -0.039 -0.059 -0.079 -0.117 -0.124 -0.172 c -0.042 -0.052 -0.088 -0.099 -0.135 -0.146 c -0.044 -0.044 -0.088 -0.086 -0.136 -0.126 c -0.059 -0.049 -0.122 -0.092 -0.186 -0.134 c -0.029 -0.019 -0.054 -0.043 -0.084 -0.061 c -0.018 -0.01 -0.037 -0.015 -0.055 -0.025 c -0.068 -0.037 -0.138 -0.066 -0.21 -0.095 c -0.053 -0.021 -0.106 -0.044 -0.16 -0.06 c -0.065 -0.02 -0.131 -0.032 -0.198 -0.045 c -0.062 -0.012 -0.122 -0.025 -0.184 -0.031 c -0.064 -0.006 -0.128 -0.005 -0.192 -0.005 c -0.065 0 -0.129 -0.001 -0.193 0.005 c -0.062 0.006 -0.123 0.019 -0.184 0.031 c -0.067 0.013 -0.133 0.025 -0.198 0.045 c -0.054 0.016 -0.106 0.039 -0.159 0.06 c -0.072 0.029 -0.143 0.059 -0.211 0.095 c -0.018 0.01 -0.036 0.014 -0.054 0.024 c -0.03 0.018 -0.054 0.041 -0.083 0.06 c -0.065 0.042 -0.127 0.085 -0.187 0.135 c -0.048 0.04 -0.092 0.082 -0.135 0.125 c -0.047 0.047 -0.093 0.094 -0.135 0.146 c -0.045 0.055 -0.085 0.113 -0.124 0.172 c -0.021 0.032 -0.048 0.06 -0.067 0.094 L 33.153 52.26 H 21.646 L 46.76 8.761 c 0.553 -0.957 0.225 -2.18 -0.731 -2.732 c -0.958 -0.553 -2.181 -0.225 -2.732 0.732 L 17.027 52.26 H 5.464 L 30.578 8.761 c 0.552 -0.957 0.225 -2.18 -0.732 -2.732 c -0.957 -0.553 -2.18 -0.225 -2.732 0.732 L 0.268 53.26 c -0.019 0.033 -0.029 0.068 -0.046 0.101 c -0.033 0.065 -0.064 0.131 -0.09 0.2 c -0.022 0.06 -0.04 0.12 -0.056 0.181 c -0.017 0.063 -0.032 0.126 -0.043 0.191 c -0.012 0.071 -0.018 0.142 -0.021 0.213 C 0.009 54.185 0 54.221 0 54.26 c 0 0.023 0.006 0.044 0.007 0.066 c 0.002 0.072 0.011 0.141 0.021 0.212 c 0.009 0.062 0.016 0.123 0.031 0.183 c 0.015 0.063 0.036 0.123 0.057 0.184 c 0.021 0.062 0.041 0.124 0.068 0.182 c 0.027 0.059 0.06 0.114 0.092 0.17 c 0.032 0.055 0.062 0.109 0.099 0.161 c 0.038 0.054 0.082 0.103 0.126 0.153 c 0.042 0.048 0.082 0.095 0.128 0.139 c 0.046 0.043 0.096 0.082 0.146 0.121 c 0.055 0.043 0.11 0.085 0.169 0.122 C 0.964 55.964 0.98 55.98 1 55.992 c 0.024 0.014 0.051 0.018 0.076 0.031 c 0.106 0.056 0.217 0.101 0.334 0.138 c 0.042 0.013 0.083 0.029 0.126 0.039 c 0.147 0.035 0.298 0.058 0.456 0.059 c 0.002 0 0.005 0.001 0.007 0.001 c 0 0 0.001 0 0.001 0 c 0 0 0.001 0 0.001 0 h 52.537 l 5.754 9.966 H 10.063 c -1.104 0 -2 0.896 -2 2 s 0.896 2 2 2 H 62.6 l 5.781 10.014 H 18.154 c -1.104 0 -2 0.896 -2 2 s 0.896 2 2 2 h 53.692 c 0 0 0.001 0 0.001 0 c 0 0 0.001 0 0.001 0 c 0.002 0 0.005 -0.001 0.007 -0.001 c 0.158 -0.001 0.309 -0.024 0.456 -0.059 c 0.042 -0.01 0.083 -0.026 0.124 -0.039 c 0.117 -0.036 0.228 -0.082 0.335 -0.138 c 0.025 -0.013 0.051 -0.017 0.075 -0.031 c 0.02 -0.012 0.036 -0.028 0.056 -0.04 c 0.059 -0.037 0.114 -0.079 0.168 -0.121 c 0.051 -0.039 0.102 -0.078 0.148 -0.122 c 0.045 -0.043 0.085 -0.09 0.126 -0.137 c 0.045 -0.051 0.09 -0.101 0.128 -0.156 c 0.036 -0.05 0.065 -0.103 0.096 -0.157 c 0.033 -0.057 0.067 -0.114 0.095 -0.174 c 0.026 -0.057 0.045 -0.117 0.066 -0.177 c 0.022 -0.063 0.043 -0.125 0.059 -0.189 c 0.014 -0.058 0.021 -0.118 0.03 -0.178 c 0.01 -0.072 0.02 -0.144 0.022 -0.218 c 0.001 -0.022 0.006 -0.042 0.006 -0.064 c 0 -0.037 -0.009 -0.073 -0.011 -0.109 c -0.004 -0.073 -0.01 -0.146 -0.022 -0.219 c -0.01 -0.063 -0.025 -0.124 -0.042 -0.184 c -0.017 -0.063 -0.035 -0.126 -0.058 -0.188 c -0.025 -0.067 -0.055 -0.13 -0.087 -0.193 c -0.018 -0.035 -0.028 -0.072 -0.048 -0.106 L 47.31 35.74 l 5.754 -9.965 l 25.113 43.499 c 0.371 0.642 1.043 1 1.734 1 c 0.339 0 0.683 -0.086 0.998 -0.268 c 0.957 -0.553 1.284 -1.775 0.732 -2.732 L 55.373 21.774 l 5.781 -10.013 L 86.268 55.26 c 0.371 0.642 1.043 1 1.734 1 c 0.339 0 0.683 -0.086 0.998 -0.268 C 89.957 55.439 90.284 54.217 89.732 53.26 z M 52.228 52.26 H 37.772 L 45 39.74 L 52.228 52.26 z" style="stroke: none; stroke-width: 1; stroke-dasharray: none; stroke-linecap: butt; stroke-linejoin: miter; stroke-miterlimit: 10; fill: rgb(33,192,224); fill-rule: nonzero; opacity: 1;" transform=" matrix(1 0 0 1 0 0) " stroke-linecap="round" />
</g>
</svg>